<?xml version="1.0" standalone="no"?>
<!DOCTYPE svg PUBLIC "-//W3C//DTD SVG 20010904//EN"
 "http://www.w3.org/TR/2001/REC-SVG-20010904/DTD/svg10.dtd">
<svg version="1.0" xmlns="http://www.w3.org/2000/svg"
 width="40.000000pt" height="40.000000pt" viewBox="0 0 40.000000 40.000000"
 preserveAspectRatio="xMidYMid meet">

<g transform="translate(0.000000,40.000000) scale(0.100000,-0.100000)"
fill="#000000" stroke="none">
<path d="M142 88 c2 -17 10 -33 18 -35 13 -4 13 -3 0 6 -13 10 -13 11 0 11 13
0 13 1 0 10 -13 9 -13 10 0 10 13 0 13 1 0 10 -11 7 1 9 40 9 50 -2 52 -2 20
-9 l-35 -7 35 -3 35 -3 -35 -7 -35 -7 35 -3 35 -3 -35 -7 -35 -8 35 1 c32 2
35 5 38 35 l3 32 -61 0 -61 0 3 -32z"/>
<path d="M170 31 c0 -13 27 -21 45 -15 25 10 17 24 -15 24 -16 0 -30 -4 -30
-9z"/>
</g>
</svg>
