<?xml version="1.0" encoding="UTF-8"?>
<svg version="1.1" xmlns="http://www.w3.org/2000/svg" width="40" height="40">
<path d="M0 0 C3.28636404 1.43778427 5.70241762 3.24290115 8 6 C9.55340692 10.66022076 9.73043676 15.14394824 9 20 C6.77869311 24.03490556 4.38057513 26.53980829 0 28 C-0.33 30.97 -0.66 33.94 -1 37 C-6.75 38.125 -6.75 38.125 -9 37 C-9.23828125 35.0390625 -9.23828125 35.0390625 -9.3125 32.625 C-9.47080642 30.1931623 -9.47080642 30.1931623 -10 28 C-12.28504837 26.02872012 -12.28504837 26.02872012 -15 25 C-17.93355138 22.48552739 -18.82002337 20.43070028 -19.30859375 16.546875 C-19.54679083 11.37872015 -19.58137237 7.92845859 -16.125 3.875 C-11.37224041 -0.92367997 -6.49867855 -0.53607044 0 0 Z " fill="#FDEBA0" transform="translate(25,1)"/>
<path d="M0 0 C3.28636404 1.43778427 5.70241762 3.24290115 8 6 C9.55340692 10.66022076 9.73043676 15.14394824 9 20 C6.77869311 24.03490556 4.38057513 26.53980829 0 28 C-0.33 30.97 -0.66 33.94 -1 37 C-6.75 38.125 -6.75 38.125 -9 37 C-9.23828125 35.0390625 -9.23828125 35.0390625 -9.3125 32.625 C-9.47080642 30.1931623 -9.47080642 30.1931623 -10 28 C-12.28504837 26.02872012 -12.28504837 26.02872012 -15 25 C-17.93355138 22.48552739 -18.82002337 20.43070028 -19.30859375 16.546875 C-19.54679083 11.37872015 -19.58137237 7.92845859 -16.125 3.875 C-11.37224041 -0.92367997 -6.49867855 -0.53607044 0 0 Z M-17.4375 7.875 C-18.62378468 12.35651991 -18.40938887 15.93558893 -16.75 20.25 C-15.02472929 22.96113969 -13.78402197 24.43398764 -11 26 C-10.01 26 -9.02 26 -8 26 C-8 27.32 -8 28.64 -8 30 C-6.02 30 -4.04 30 -2 30 C-2 28.68 -2 27.36 -2 26 C-1.2575 25.938125 -0.515 25.87625 0.25 25.8125 C3.86782848 24.74359613 4.93843714 23.09234428 7 20 C8.20643566 16.38069302 8.32268559 13.80768995 8 10 C5.74794145 5.66270205 3.5613976 2.86602629 -1 1 C-8.26488681 0.06259525 -12.93629395 2.00386168 -17.4375 7.875 Z " fill="#C1A54A" transform="translate(25,1)"/>
<path d="M0 0 C2.64 0 5.28 0 8 0 C8.625 1.875 8.625 1.875 9 4 C8.34 4.66 7.68 5.32 7 6 C6.53513282 9.12196336 6.53513282 9.12196336 6.375 12.625 C6.30023437 13.81351563 6.22546875 15.00203125 6.1484375 16.2265625 C6.09945313 17.14179688 6.05046875 18.05703125 6 19 C4.68 19 3.36 19 2 19 C1.95101563 18.08476562 1.90203125 17.16953125 1.8515625 16.2265625 C1.77679687 15.03804687 1.70203125 13.84953125 1.625 12.625 C1.55539063 11.44164062 1.48578125 10.25828125 1.4140625 9.0390625 C1.29782654 5.89437681 1.29782654 5.89437681 -1 4 C-0.625 1.875 -0.625 1.875 0 0 Z " fill="#FFF5CE" transform="translate(16,12)"/>
<path d="M0 0 C2.64 0 5.28 0 8 0 C8 2.31 8 4.62 8 7 C2.25 8.125 2.25 8.125 0 7 C0 4.69 0 2.38 0 0 Z " fill="#826E97" transform="translate(16,31)"/>
<path d="M0 0 C1.98 0 3.96 0 6 0 C6 1.65 6 3.3 6 5 C4.02 5 2.04 5 0 5 C0 3.35 0 1.7 0 0 Z " fill="#DAD2F0" transform="translate(17,32)"/>
<path d="M0 0 C0 3 0 3 -2.3125 5.6875 C-5 8 -5 8 -8 8 C-7.04578192 6.85073734 -6.08647955 5.70569459 -5.125 4.5625 C-4.59132813 3.92441406 -4.05765625 3.28632812 -3.5078125 2.62890625 C-2 1 -2 1 0 0 Z " fill="#CBB33E" transform="translate(14,1)"/>
</svg>
