<?xml version="1.0" encoding="UTF-8"?>
<svg version="1.1" xmlns="http://www.w3.org/2000/svg" width="40" height="40">
<path d="M0 0 C3.12578143 1.6720747 5.39281175 3.7856235 7 7 C7.93772307 13.96594282 6.57189108 18.49963011 3.16796875 24.53515625 C1.63431214 27.77173593 1.39926853 30.64096255 1.3359375 34.1875 C1.22507812 34.785625 1.11421875 35.38375 1 36 C-2.46998729 38.31332486 -3.92509248 38.33957563 -8 38 C-11 36 -11 36 -11.58984375 33.42578125 C-11.76193359 31.88470703 -11.76193359 31.88470703 -11.9375 30.3125 C-12.47200442 26.47046397 -12.92768118 23.59002438 -15.125 20.375 C-17.63547132 15.85615163 -17.99144821 12.06555051 -17 7 C-13.1007018 -0.13672291 -7.56821324 -1.066272 0 0 Z " fill="#D1EBFA" transform="translate(25,1)"/>
<path d="M0 0 C3.12578143 1.6720747 5.39281175 3.7856235 7 7 C7.93772307 13.96594282 6.57189108 18.49963011 3.16796875 24.53515625 C1.63431214 27.77173593 1.39926853 30.64096255 1.3359375 34.1875 C1.22507812 34.785625 1.11421875 35.38375 1 36 C-2.46998729 38.31332486 -3.92509248 38.33957563 -8 38 C-11 36 -11 36 -11.58984375 33.42578125 C-11.76193359 31.88470703 -11.76193359 31.88470703 -11.9375 30.3125 C-12.47200442 26.47046397 -12.92768118 23.59002438 -15.125 20.375 C-17.63547132 15.85615163 -17.99144821 12.06555051 -17 7 C-13.1007018 -0.13672291 -7.56821324 -1.066272 0 0 Z M-14 5 C-16.37529984 8.23904524 -16.27320472 11.06208372 -16 15 C-14.73342999 18.25403879 -14.73342999 18.25403879 -13 21.375 C-12.1646875 22.96441406 -12.1646875 22.96441406 -11.3125 24.5859375 C-10.879375 25.38257812 -10.44625 26.17921875 -10 27 C-6.7 27 -3.4 27 0 27 C1.01501998 25.13308826 2.01142079 23.25604656 3 21.375 C3.556875 20.33085937 4.11375 19.28671875 4.6875 18.2109375 C6.08138623 14.80089439 6.38548779 12.64184516 6 9 C4.34976991 5.93528698 2.943924 3.69221093 0.125 1.625 C-5.80785337 -0.11995687 -9.27149491 1.13122311 -14 5 Z " fill="#7B89B1" transform="translate(25,1)"/>
<path d="M0 0 C2.64 0 5.28 0 8 0 C7.34 5.28 6.68 10.56 6 16 C4.68 16 3.36 16 2 16 C1.93941406 15.18015625 1.87882812 14.3603125 1.81640625 13.515625 C1.73261719 12.43796875 1.64882813 11.3603125 1.5625 10.25 C1.48128906 9.18265625 1.40007813 8.1153125 1.31640625 7.015625 C1.05909227 4.56320038 0.68187782 2.36078709 0 0 Z " fill="#DAF1FE" transform="translate(16,12)"/>
<path d="M0 0 C3.3 0 6.6 0 10 0 C10 5 10 5 9 7 C6.36 7 3.72 7 1 7 C0.67 4.69 0.34 2.38 0 0 Z " fill="#DBD4F1" transform="translate(15,29)"/>
</svg>
