<?xml version="1.0" encoding="UTF-8"?>
<svg version="1.1" xmlns="http://www.w3.org/2000/svg" width="24" height="24">
<path d="M0 0 C1.32 0.33 2.64 0.66 4 1 C2.02 3.31 0.04 5.62 -2 8 C-0.36924895 11.81944385 -0.36924895 11.81944385 1.625 13.5625 C3 15 3 15 3 18 C-0.62613199 17.43040847 -2.25517741 16.07625466 -4.75 13.4375 C-5.36359375 12.79683594 -5.9771875 12.15617188 -6.609375 11.49609375 C-7.06828125 11.00238281 -7.5271875 10.50867187 -8 10 C-6.69555432 7.14885445 -5.29447569 4.95252254 -3.125 2.6875 C-2.38636719 1.88892578 -2.38636719 1.88892578 -1.6328125 1.07421875 C-0.82457031 0.54248047 -0.82457031 0.54248047 0 0 Z " fill="#000000" transform="translate(11,3)"/>
<path d="M0 0 C-0.54226981 3.79588866 -2.20127563 5.47211993 -5 8 C-3.99686938 10.23775292 -3.15523165 11.8507388 -1.375 13.5625 C0 15 0 15 0 18 C-3.62613199 17.43040847 -5.25517741 16.07625466 -7.75 13.4375 C-8.36359375 12.79683594 -8.9771875 12.15617188 -9.609375 11.49609375 C-10.06828125 11.00238281 -10.5271875 10.50867187 -11 10 C-9.69235781 7.12193585 -8.28858403 4.99307704 -6.0625 2.75 C-5.30646484 1.96882812 -5.30646484 1.96882812 -4.53515625 1.171875 C-3 0 -3 0 0 0 Z " fill="#000000" transform="translate(20,3)"/>
</svg>
