<?xml version="1.0" encoding="UTF-8"?>
<svg version="1.1" xmlns="http://www.w3.org/2000/svg" width="40" height="40">
<path d="M0 0 C1.32 0.33 2.64 0.66 4 1 C4.67163086 2.79785156 4.67163086 2.79785156 5 5 C3.92016602 6.64746094 3.92016602 6.64746094 2.25390625 8.234375 C1.66416016 8.80800781 1.07441406 9.38164062 0.46679688 9.97265625 C-0.16162109 10.55917969 -0.79003906 11.14570313 -1.4375 11.75 C-2.06205078 12.35199219 -2.68660156 12.95398438 -3.33007812 13.57421875 C-4.87578596 15.0609301 -6.4365232 16.5319865 -8 18 C-5.89129457 22.63039905 -2.44007677 25.57916193 1.27539062 28.93359375 C2.76171875 30.34375 2.76171875 30.34375 5 33 C4.83203125 35.34375 4.83203125 35.34375 4 37 C2.30078125 37.77734375 2.30078125 37.77734375 0 38 C-2.33203125 36.19140625 -2.33203125 36.19140625 -4.8125 33.5625 C-5.68261719 32.64855469 -6.55273438 31.73460938 -7.44921875 30.79296875 C-10.69111384 27.24326739 -13.90011104 23.67470281 -17 20 C-15.44657022 16.23358366 -13.10232647 13.93057511 -10.1875 11.125 C-6.5446477 7.56122554 -3.15576422 3.99730134 0 0 Z " fill="#42A5D5" transform="translate(26,1)"/>
<path d="M0 0 C-1.65863505 4.32504836 -4.871041 7.09418825 -8.125 10.25 C-8.68832031 10.80429688 -9.25164063 11.35859375 -9.83203125 11.9296875 C-11.21686028 13.29104485 -12.60783204 14.64614859 -14 16 C-12.35303304 20.31547039 -9.14237949 23.00923905 -5.875 26.125 C-3.86216509 28.04571432 -1.92167788 29.98429507 0 32 C0 32.66 0 33.32 0 34 C-3.04332765 32.6415798 -5.12309151 31.11536976 -7.453125 28.7421875 C-8.071875 28.11699219 -8.690625 27.49179687 -9.328125 26.84765625 C-9.96234375 26.19667969 -10.5965625 25.54570312 -11.25 24.875 C-11.8996875 24.21628906 -12.549375 23.55757812 -13.21875 22.87890625 C-14.81711727 21.25703357 -16.41061897 19.6306719 -18 18 C-16.6489735 14.98984706 -15.13664313 12.88032534 -12.8125 10.546875 C-12.19632813 9.928125 -11.58015625 9.309375 -10.9453125 8.671875 C-10.30335937 8.03765625 -9.66140625 7.4034375 -9 6.75 C-8.35804687 6.1003125 -7.71609375 5.450625 -7.0546875 4.78125 C-6.43851563 4.16765625 -5.82234375 3.5540625 -5.1875 2.921875 C-4.62417969 2.36081055 -4.06085937 1.79974609 -3.48046875 1.22167969 C-2 0 -2 0 0 0 Z " fill="#B1D8FB" transform="translate(29,3)"/>
<path d="M0 0 C1.32 0.33 2.64 0.66 4 1 C4.68530273 2.78417969 4.68530273 2.78417969 5 5 C3.82836914 6.73925781 3.82836914 6.73925781 2.03515625 8.453125 C1.40029297 9.071875 0.76542969 9.690625 0.11132812 10.328125 C-0.56478516 10.96234375 -1.24089844 11.5965625 -1.9375 12.25 C-2.60974609 12.8996875 -3.28199219 13.549375 -3.97460938 14.21875 C-5.63912593 15.82424114 -7.31415428 17.41696904 -9 19 C-9.66 18.34 -10.32 17.68 -11 17 C-10.07316406 16.08476562 -9.14632813 15.16953125 -8.19140625 14.2265625 C-6.98163961 13.0261739 -5.77201135 11.82564583 -4.5625 10.625 C-3.95083984 10.02171875 -3.33917969 9.4184375 -2.70898438 8.796875 C-2.12568359 8.21679688 -1.54238281 7.63671875 -0.94140625 7.0390625 C-0.40201416 6.50490723 0.13737793 5.97075195 0.69311523 5.42041016 C2.10846977 4.01347612 2.10846977 4.01347612 3 2 C-2.96348734 7.05352742 -8.53105379 12.41711741 -14 18 C-14.66 17.67 -15.32 17.34 -16 17 C-15.26394531 16.27554687 -14.52789062 15.55109375 -13.76953125 14.8046875 C-6.56983689 7.69064086 -6.56983689 7.69064086 0 0 Z " fill="#508FCB" transform="translate(26,1)"/>
<path d="M0 0 C2.93230193 1.32120828 4.98664899 2.74638197 7.234375 5.0390625 C8.09482422 5.90917969 8.09482422 5.90917969 8.97265625 6.796875 C9.55917969 7.40015625 10.14570313 8.0034375 10.75 8.625 C11.35199219 9.23601563 11.95398438 9.84703125 12.57421875 10.4765625 C14.05405305 11.97988624 15.52764676 13.48934856 17 15 C16.01 15.33 15.02 15.66 14 16 C11.65861457 13.71643754 9.32833018 11.42186626 7 9.125 C5.99839844 8.14853516 5.99839844 8.14853516 4.9765625 7.15234375 C4.34492188 6.52714844 3.71328125 5.90195312 3.0625 5.2578125 C2.47597656 4.6817627 1.88945312 4.10571289 1.28515625 3.51220703 C0 2 0 2 0 0 Z " fill="#39B4DD" transform="translate(14,19)"/>
<path d="M0 0 C0.99 0.33 1.98 0.66 3 1 C-1.62 5.62 -6.24 10.24 -11 15 C-11.66 14.34 -12.32 13.68 -13 13 C-8.71 8.71 -4.42 4.42 0 0 Z " fill="#648CDF" transform="translate(28,5)"/>
<path d="M0 0 C1.8125 0.9375 1.8125 0.9375 2.8125 3.9375 C2.1525 3.9375 1.4925 3.9375 0.8125 3.9375 C0.8125 3.2775 0.8125 2.6175 0.8125 1.9375 C0.214375 2.453125 -0.38375 2.96875 -1 3.5 C-1.721875 3.974375 -2.44375 4.44875 -3.1875 4.9375 C-4.1775 4.6075 -5.1675 4.2775 -6.1875 3.9375 C-2.77921598 -0.07940617 -2.77921598 -0.07940617 0 0 Z " fill="#3DA9D7" transform="translate(28.1875,1.0625)"/>
<path d="M0 0 C2 1 4 2 6 3 C6 2.34 6 1.68 6 1 C6.66 1 7.32 1 8 1 C7.34 2.32 6.68 3.64 6 5 C4.125 4.75 4.125 4.75 2 4 C0.75 1.9375 0.75 1.9375 0 0 Z " fill="#5492D6" transform="translate(23,34)"/>
</svg>
