<?xml version="1.0" encoding="UTF-8"?>
<svg version="1.1" xmlns="http://www.w3.org/2000/svg" width="40" height="40">
<path d="M0 0 C2.56439724 1.32056251 4.92841281 2.88052542 7.3125 4.5 C8.26092773 5.12455078 8.26092773 5.12455078 9.22851562 5.76171875 C13.76971726 8.76971726 13.76971726 8.76971726 15 10 C15.04063832 11.66617115 15.042721 13.33388095 15 15 C14.34 15 13.68 15 13 15 C13 22.26 13 29.52 13 37 C1.78 37 -9.44 37 -21 37 C-21 29.74 -21 22.48 -21 15 C-21.66 15 -22.32 15 -23 15 C-23.28515625 12.72265625 -23.28515625 12.72265625 -23 10 C-21.05859375 8.12109375 -21.05859375 8.12109375 -18.4375 6.4375 C-17.52355469 5.84839844 -16.60960937 5.25929688 -15.66796875 4.65234375 C-14.78753906 4.10707031 -13.90710937 3.56179687 -13 3 C-12.33613281 2.54753906 -11.67226562 2.09507812 -10.98828125 1.62890625 C-6.85412852 -1.05597047 -4.69111637 -1.26147667 0 0 Z " fill="#DAF1FE" transform="translate(24,2)"/>
<path d="M0 0 C2.56439724 1.32056251 4.92841281 2.88052542 7.3125 4.5 C8.26092773 5.12455078 8.26092773 5.12455078 9.22851562 5.76171875 C13.76971726 8.76971726 13.76971726 8.76971726 15 10 C15.04063832 11.66617115 15.042721 13.33388095 15 15 C14.34 15 13.68 15 13 15 C13 22.26 13 29.52 13 37 C1.78 37 -9.44 37 -21 37 C-21 29.74 -21 22.48 -21 15 C-21.66 15 -22.32 15 -23 15 C-23.28515625 12.72265625 -23.28515625 12.72265625 -23 10 C-21.05859375 8.12109375 -21.05859375 8.12109375 -18.4375 6.4375 C-17.52355469 5.84839844 -16.60960937 5.25929688 -15.66796875 4.65234375 C-14.78753906 4.10707031 -13.90710937 3.56179687 -13 3 C-12.33613281 2.54753906 -11.67226562 2.09507812 -10.98828125 1.62890625 C-6.85412852 -1.05597047 -4.69111637 -1.26147667 0 0 Z M-18.69042969 11.21679688 C-22.76906703 16.7705566 -20.81894096 25.61096061 -20 32 C-16.7 32 -13.4 32 -10 32 C-10 27.71 -10 23.42 -10 19 C-6.04 19 -2.08 19 2 19 C2 23.29 2 27.58 2 32 C5.3 32 8.6 32 12 32 C13.794004 21.19075861 13.794004 21.19075861 10.69042969 11.21679688 C1.04708692 2.64117044 -9.04708692 2.64117044 -18.69042969 11.21679688 Z " fill="#9B989E" transform="translate(24,2)"/>
<path d="M0 0 C2.56439724 1.32056251 4.92841281 2.88052542 7.3125 4.5 C8.26092773 5.12455078 8.26092773 5.12455078 9.22851562 5.76171875 C13.76971726 8.76971726 13.76971726 8.76971726 15 10 C15.04063832 11.66617115 15.042721 13.33388095 15 15 C14.34 15 13.68 15 13 15 C13 14.34 13 13.68 13 13 C12.27683594 12.73574219 11.55367187 12.47148437 10.80859375 12.19921875 C7.09524625 10.61368651 3.93356713 8.4019543 0.59765625 6.14453125 C-2.8007978 4.64716728 -4.46033979 4.95491419 -8 6 C-10.96034877 7.59226412 -10.96034877 7.59226412 -13.75 9.5625 C-18.81287726 13 -18.81287726 13 -21 13 C-21 13.66 -21 14.32 -21 15 C-21.66 15 -22.32 15 -23 15 C-23.28515625 12.72265625 -23.28515625 12.72265625 -23 10 C-21.05859375 8.12109375 -21.05859375 8.12109375 -18.4375 6.4375 C-17.52355469 5.84839844 -16.60960937 5.25929688 -15.66796875 4.65234375 C-14.78753906 4.10707031 -13.90710937 3.56179687 -13 3 C-12.33613281 2.54753906 -11.67226562 2.09507812 -10.98828125 1.62890625 C-6.85412852 -1.05597047 -4.69111637 -1.26147667 0 0 Z " fill="#D45B5B" transform="translate(24,2)"/>
<path d="M0 0 C3.3 0 6.6 0 10 0 C10 5.28 10 10.56 10 16 C6.7 16 3.4 16 0 16 C0 10.72 0 5.44 0 0 Z " fill="#FDC29A" transform="translate(15,22)"/>
<path d="M0 0 C0.33 0 0.66 0 1 0 C1 7.92 1 15.84 1 24 C-2.63 24 -6.26 24 -10 24 C-10 22.35 -10 20.7 -10 19 C-6.7 19 -3.4 19 0 19 C0 12.73 0 6.46 0 0 Z " fill="#97BCDD" transform="translate(36,15)"/>
<path d="M0 0 C-0.556875 0.226875 -1.11375 0.45375 -1.6875 0.6875 C-4.17131969 1.95518848 -4.17131969 1.95518848 -6.3125 4.375 C-9.94841339 7.92635727 -13.72526743 11 -19 11 C-17.56619323 6.6985797 -14.34930125 5.44443029 -10.625 3.25 C-9.93921875 2.82589844 -9.2534375 2.40179688 -8.546875 1.96484375 C-3.37413436 -1.12471145 -3.37413436 -1.12471145 0 0 Z " fill="#E57A7B" transform="translate(21,4)"/>
</svg>
