<?xml version="1.0" standalone="no"?>
<!DOCTYPE svg PUBLIC "-//W3C//DTD SVG 20010904//EN"
 "http://www.w3.org/TR/2001/REC-SVG-20010904/DTD/svg10.dtd">
<svg version="1.0" xmlns="http://www.w3.org/2000/svg"
 width="40.000000pt" height="40.000000pt" viewBox="0 0 40.000000 40.000000"
 preserveAspectRatio="xMidYMid meet">

<g transform="translate(0.000000,40.000000) scale(0.100000,-0.100000)"
fill="#000000" stroke="none">
<path d="M160 65 c0 -14 4 -25 9 -25 6 0 8 9 6 20 -3 17 1 20 28 19 31 -1 31
-1 7 -9 l-25 -8 25 -2 25 -2 -25 -8 -25 -8 28 -1 c22 -1 27 3 27 24 0 23 -4
25 -40 25 -36 0 -40 -2 -40 -25z"/>
<path d="M188 18 c9 -9 15 -9 24 0 9 9 7 12 -12 12 -19 0 -21 -3 -12 -12z"/>
</g>
</svg>
