<?xml version="1.0" encoding="UTF-8"?>
<svg version="1.1" xmlns="http://www.w3.org/2000/svg" width="500" height="100">
<path d="M0 0 C165 0 330 0 500 0 C500 165 500 330 500 500 C335 500 170 500 0 500 C0 335 0 170 0 0 Z " fill="transparent" transform="translate(0,0)"/>
<path d="M0 0 C5.6235958 3.17764521 8.66683077 6.76217743 10.5546875 13.05078125 C12.16543252 20.97027762 10.92889888 28.0957633 6.9765625 35.125 C3.74215982 38.5296344 0.55092297 40.09810275 -4.0234375 41.125 C-9.03832888 40.91604619 -12.17310596 39.30570867 -16.0234375 36.125 C-21.02860928 29.29254328 -21.82672491 22.38100949 -21.0234375 14.125 C-19.42633359 8.39625772 -17.16765997 4.34013904 -12.0234375 1.125 C-11.3840625 0.7125 -10.7446875 0.3 -10.0859375 -0.125 C-6.44522801 -1.44889436 -3.60520321 -1.55900679 0 0 Z " fill="#F6F5F1" transform="translate(166.0234375,222.875)"/>
<path d="M0 0 C17.74772727 0 17.74772727 0 22.86328125 4.71875 C23.34152344 5.3065625 23.81976563 5.894375 24.3125 6.5 C24.80363281 7.0878125 25.29476562 7.675625 25.80078125 8.28125 C29.32300752 13.32939189 28.50509536 20.14642914 28 26 C26.53679544 30.83691456 23.99311453 34.85390977 20 38 C15 40 15 40 0 40 C0 26.8 0 13.6 0 0 Z " fill="#EFEEEA" transform="translate(213,223)"/>
<path d="M0 0 C2.64 0 5.28 0 8 0 C8.01981934 0.57331055 8.03963867 1.14662109 8.06005859 1.73730469 C7.84807481 18.79205092 7.84807481 18.79205092 12 35 C12.99 35.33 13.98 35.66 15 36 C15.11730469 34.99066406 15.23460938 33.98132813 15.35546875 32.94140625 C15.99186736 29.04973235 17.0066765 25.65283064 18.3125 21.9375 C20.8152124 14.69328853 22.96228188 7.38815116 25 0 C26.98 0 28.96 0 31 0 C30.67 1.258125 30.34 2.51625 30 3.8125 C27.66712996 14.60412184 29.60482224 24.43555523 32 35 C32.99 35.33 33.98 35.66 35 36 C35.09651855 35.43619629 35.19303711 34.87239258 35.29248047 34.29150391 C36.67336615 26.79933695 38.83494615 19.63358059 41.125 12.375 C41.49753906 11.18003906 41.87007812 9.98507813 42.25390625 8.75390625 C43.16476301 5.83449356 44.08021058 2.91660814 45 0 C46.98 0 48.96 0 51 0 C49.74894146 6.81908616 48.13513637 13.42904999 46.125 20.0625 C45.88136719 20.89587891 45.63773438 21.72925781 45.38671875 22.58789062 C41.08215726 36.91784274 41.08215726 36.91784274 38 40 C35.625 40.3125 35.625 40.3125 33 40 C29.83139081 36.75035221 28.96927081 33.05797405 27.8125 28.75 C27.46832031 27.48671875 27.12414062 26.2234375 26.76953125 24.921875 C26.51558594 23.95765625 26.26164062 22.9934375 26 22 C23.93195017 26.62849247 22.22376993 31.23158007 20.74609375 36.08203125 C20 38 20 38 18 40 C15.625 40.5 15.625 40.5 13 40 C9.33002177 35.44465737 7.89637225 30.99261687 6.5 25.375 C6.08206879 23.77534915 5.66148493 22.17638905 5.23828125 20.578125 C5.03283691 19.80017578 4.82739258 19.02222656 4.61572266 18.22070312 C3.50336827 14.2088175 2.11009225 10.29756821 0.69921875 6.3828125 C0 4 0 4 0 0 Z " fill="#090909" transform="translate(91,223)"/>
<path d="M0 0 C3.09253463 5.7976675 5.25365689 11.44267433 7.0625 17.75 C7.31854004 18.62237305 7.57458008 19.49474609 7.83837891 20.39355469 C9.72739283 26.88906914 11.47284444 33.4091181 13 40 C11.02 40 9.04 40 7 40 C6.32968281 38.0429132 5.66385317 36.08428887 5 34.125 C4.62875 33.03445313 4.2575 31.94390625 3.875 30.8203125 C3 28 3 28 3 26 C-1.29 26 -5.58 26 -10 26 C-10 30.62 -10 35.24 -10 40 C-12.97 40 -15.94 40 -19 40 C-17.16931394 31.89267603 -14.8434544 23.95213589 -12.4375 16 C-12.13255615 14.98478271 -11.8276123 13.96956543 -11.51342773 12.92358398 C-11.21895752 11.95880127 -10.9244873 10.99401855 -10.62109375 10 C-10.3573999 9.13375 -10.09370605 8.2675 -9.82202148 7.375 C-7.74451999 1.37264345 -6.50203523 -0.17110619 0 0 Z " fill="#0C0C0C" transform="translate(332,223)"/>
<path d="M0 0 C1.98 0 3.96 0 6 0 C5.67 1.175625 5.34 2.35125 5 3.5625 C2.66876556 14.21238393 3.42077169 24.75232846 7 35 C7.66 35 8.32 35 9 35 C12.94566246 23.40707421 16.63177476 11.77388468 20 0 C21.98 0 23.96 0 26 0 C25.23858031 5.55010734 23.73805018 10.81826703 22.1875 16.1875 C21.91905273 17.11989502 21.65060547 18.05229004 21.37402344 19.01293945 C16.19037093 36.80962907 16.19037093 36.80962907 13 40 C10.33784596 40.3413018 8.71056444 40.4997576 6.47265625 38.92578125 C4.33741251 36.13353944 3.75776098 33.26007555 2.875 29.875 C2.07048257 25.62013567 2.07048257 25.62013567 0 22 C-0.50660156 23.69769531 -0.50660156 23.69769531 -1.0234375 25.4296875 C-1.47362638 26.91155922 -1.92416543 28.39332459 -2.375 29.875 C-2.59671875 30.62136719 -2.8184375 31.36773437 -3.046875 32.13671875 C-4.7734375 37.7734375 -4.7734375 37.7734375 -7 40 C-9.4375 40.3125 -9.4375 40.3125 -12 40 C-13.8125 38.5 -13.8125 38.5 -15 37 C-14.67 36.01 -14.34 35.02 -14 34 C-14 34.66 -14 35.32 -14 36 C-12.515 35.505 -12.515 35.505 -11 35 C-10.02903772 32.56916065 -9.26139207 30.26265236 -8.5546875 27.75390625 C-8.2316716 26.66443947 -8.2316716 26.66443947 -7.90213013 25.55296326 C-7.21474038 23.22605419 -6.54447372 20.89462011 -5.875 18.5625 C-5.19481222 16.23512494 -4.51121319 13.90877995 -3.82644653 11.58274841 C-3.4011711 10.13361531 -2.9792573 8.68349068 -2.56100464 7.23231506 C-1.10697616 2.21395231 -1.10697616 2.21395231 0 0 Z " fill="#131313" transform="translate(285,223)"/>
<path d="M0 0 C5.56875 -0.12375 5.56875 -0.12375 11.25 -0.25 C12.4143457 -0.28641602 13.57869141 -0.32283203 14.77832031 -0.36035156 C15.70225586 -0.3703418 16.62619141 -0.38033203 17.578125 -0.390625 C18.99206543 -0.4220459 18.99206543 -0.4220459 20.43457031 -0.45410156 C23.7747855 0.13714323 24.93089435 1.36626794 27 4 C27.5625 6.9375 27.5625 6.9375 27 10 C23.66278173 14.24736871 19.69214066 16.51592553 15 19 C15.53660733 23.4210037 17.14438694 25.9755167 19.8125 29.5 C20.49957031 30.4178125 21.18664062 31.335625 21.89453125 32.28125 C23.90382649 34.87581306 25.94043494 37.44521367 28 40 C21.12912689 40.82924331 21.12912689 40.82924331 18.30859375 38.7578125 C16.68778165 36.92117425 15.33470644 35.05454811 14 33 C13.49984375 32.23171875 12.9996875 31.4634375 12.484375 30.671875 C8.96396727 24.83031932 8.96396727 24.83031932 9.08984375 21.9296875 C10.34389183 19.27089028 12.04171435 18.38782546 14.5 16.8125 C17.94363746 14.29589968 17.94363746 14.29589968 19.88671875 10.6171875 C20.17432647 8.29391476 20.35363183 6.31510974 20 4 C17.05066065 0.62003248 17.05066065 0.62003248 6 1 C6 13.87 6 26.74 6 40 C4.02 40 2.04 40 0 40 C0 26.8 0 13.6 0 0 Z " fill="#0B0B0B" transform="translate(181,223)"/>
<path d="M0 0 C1.12535156 0.00870117 1.12535156 0.00870117 2.2734375 0.01757812 C6.08518412 0.10205832 9.14463908 0.30956384 12.375 2.4375 C12.045 4.4175 11.715 6.3975 11.375 8.4375 C10.82972656 8.293125 10.28445313 8.14875 9.72265625 8 C0.4547443 5.65309303 0.4547443 5.65309303 -8.625 7.4375 C-8.625 9.0875 -8.625 10.7375 -8.625 12.4375 C-7.58859375 12.76363281 -6.5521875 13.08976563 -5.484375 13.42578125 C-4.1144532 13.86678347 -2.74466867 14.30821223 -1.375 14.75 C-0.69308594 14.96333984 -0.01117188 15.17667969 0.69140625 15.39648438 C4.38154684 16.59667573 7.55973674 17.7079808 10.375 20.4375 C10.75 23 10.75 23 10.375 25.4375 C8.375 27.4375 8.375 27.4375 4.625 27.6875 C0.87982301 27.60666884 -2.07195887 26.62184704 -5.625 25.4375 C-8.31808777 25.27101821 -10.92276637 25.34431953 -13.625 25.4375 C-13.44084568 28.37841587 -13.44084568 28.37841587 -12.625 31.4375 C-9.70642915 33.41173148 -7.32971996 33.6773041 -3.859375 33.6328125 C-2.52519531 33.62314453 -2.52519531 33.62314453 -1.1640625 33.61328125 C-0.24367188 33.59652344 0.67671875 33.57976562 1.625 33.5625 C3.02878906 33.54896484 3.02878906 33.54896484 4.4609375 33.53515625 C6.76588657 33.51163636 9.0703116 33.47876853 11.375 33.4375 C10.5 39.3125 10.5 39.3125 9.375 40.4375 C6.96146168 40.61903617 4.60375181 40.71564571 2.1875 40.75 C0.87394531 40.78738281 -0.43960937 40.82476562 -1.79296875 40.86328125 C-7.23658046 40.2584355 -10.15891507 37.86500375 -14 34.125 C-16.15310026 30.56410341 -16.28318618 28.5328807 -15.625 24.4375 C-13.6875 21.5 -13.6875 21.5 -10.625 19.4375 C-4.56696313 18.31260341 1.51967243 19.88715322 7.375 21.4375 C7.375 20.7775 7.375 20.1175 7.375 19.4375 C5.72951172 19.05658203 5.72951172 19.05658203 4.05078125 18.66796875 C2.59624786 18.32075755 1.14182658 17.97307642 -0.3125 17.625 C-1.03373047 17.45935547 -1.75496094 17.29371094 -2.49804688 17.12304688 C-6.64425022 16.1196278 -10.17814786 15.07833918 -13.625 12.4375 C-14.8125 9.0625 -14.8125 9.0625 -14.625 5.4375 C-10.01934913 0.40984636 -6.64998592 -0.29440042 0 0 Z " fill="#191919" transform="translate(396.625,222.5625)"/>
<path d="M0 0 C1.98 0 3.96 0 6 0 C4.74894146 6.81908616 3.13513637 13.42904999 1.125 20.0625 C0.88136719 20.89587891 0.63773438 21.72925781 0.38671875 22.58789062 C-3.91784274 36.91784274 -3.91784274 36.91784274 -7 40 C-9.375 40.3125 -9.375 40.3125 -12 40 C-14.83327796 36.99544075 -15.80827716 33.95752844 -16.8125 30 C-17.08707031 28.96875 -17.36164063 27.9375 -17.64453125 26.875 C-18 24 -18 24 -16 20 C-15.01 24.95 -14.02 29.9 -13 35 C-12.01 35.33 -11.02 35.66 -10 36 C-9.90348145 35.43619629 -9.80696289 34.87239258 -9.70751953 34.29150391 C-8.32663385 26.79933695 -6.16505385 19.63358059 -3.875 12.375 C-3.50246094 11.18003906 -3.12992188 9.98507813 -2.74609375 8.75390625 C-1.83523699 5.83449356 -0.91978942 2.91660814 0 0 Z " fill="#141414" transform="translate(136,223)"/>
<path d="M0 0 C1.98 0 3.96 0 6 0 C5.35160135 5.84349519 3.86756434 11.20654302 2.125 16.8125 C1.74021484 18.07030273 1.74021484 18.07030273 1.34765625 19.35351562 C0.83016616 21.0451101 0.30836518 22.73539189 -0.21777344 24.42431641 C-0.75566436 26.1954616 -1.26798596 27.97451006 -1.75878906 29.75927734 C-2.0059668 30.64695801 -2.25314453 31.53463867 -2.5078125 32.44921875 C-2.72324707 33.25061279 -2.93868164 34.05200684 -3.16064453 34.87768555 C-4.09483817 37.23979878 -5.01262835 38.43345074 -7 40 C-9.5625 40.3125 -9.5625 40.3125 -12 40 C-12.66 39.34 -13.32 38.68 -14 38 C-13.67 37.01 -13.34 36.02 -13 35 C-12.01 35.33 -11.02 35.66 -10 36 C-9.63261719 34.20755859 -9.63261719 34.20755859 -9.2578125 32.37890625 C-7.79662412 25.80355855 -5.81487455 19.3843269 -3.875 12.9375 C-3.50246094 11.69033203 -3.12992187 10.44316406 -2.74609375 9.15820312 C-1.83352827 6.10461862 -0.9180976 3.05192485 0 0 Z " fill="#0F0F0E" transform="translate(372,223)"/>
<path d="M0 0 C1.98 0 3.96 0 6 0 C5.23858031 5.55010734 3.73805018 10.81826703 2.1875 16.1875 C1.91905273 17.11989502 1.65060547 18.05229004 1.37402344 19.01293945 C-3.80962907 36.80962907 -3.80962907 36.80962907 -7 40 C-9.625 40.125 -9.625 40.125 -12 40 C-12.66 38.68 -13.32 37.36 -14 36 C-12.515 35.505 -12.515 35.505 -11 35 C-9.88800988 32.32636254 -8.97458907 29.75761744 -8.125 27 C-7.86960449 26.20287598 -7.61420898 25.40575195 -7.35107422 24.58447266 C-4.76183782 16.43198531 -2.35254452 8.22349634 0 0 Z " fill="#0D0D0D" transform="translate(305,223)"/>
<path d="M0 0 C1.98 0 3.96 0 6 0 C6 13.2 6 26.4 6 40 C4.02 40 2.04 40 0 40 C0 26.8 0 13.6 0 0 Z " fill="#0A0A0A" transform="translate(181,223)"/>
<path d="M0 0 C4.46661951 0.5104708 6.89323857 1.73391747 10 5 C14.11685752 12.31143203 15.46257837 19.57203537 13.26953125 27.7109375 C11.47649465 32.70216592 9.79120327 36.31225183 5 39 C2.1875 39.75 2.1875 39.75 0 40 C0.61875 39.278125 1.2375 38.55625 1.875 37.8125 C6.21551748 32.06769745 6.33802913 27.09955768 6.3125 20.125 C6.32861328 19.25230469 6.34472656 18.37960938 6.36132812 17.48046875 C6.36609717 11.13763646 5.62652569 6.0156406 1.3125 1.0625 C0.879375 0.711875 0.44625 0.36125 0 0 Z " fill="#161615" transform="translate(163,223)"/>
<path d="M0 0 C0.99 0.33 1.98 0.66 3 1 C2.195625 1.763125 1.39125 2.52625 0.5625 3.3125 C-4.05450821 8.15472812 -3.25075909 13.41126616 -3.3125 19.75 C-3.34150391 20.72710937 -3.37050781 21.70421875 -3.40039062 22.7109375 C-3.45609531 29.0698417 -2.73808714 32.8124505 1 38 C1.66 38.66 2.32 39.32 3 40 C-1.46661951 39.4895292 -3.89323857 38.26608253 -7 35 C-10.8198148 28.3277261 -12.09720528 21.60285675 -11 14 C-9.35809643 8.25772762 -7.16308635 4.26089664 -2 1 C-1.34 0.67 -0.68 0.34 0 0 Z " fill="#141413" transform="translate(156,223)"/>
<path d="M0 0 C0.75023437 0.00580078 1.50046875 0.01160156 2.2734375 0.01757812 C6.08518412 0.10205832 9.14463908 0.30956384 12.375 2.4375 C12.045 4.4175 11.715 6.3975 11.375 8.4375 C10.82972656 8.293125 10.28445313 8.14875 9.72265625 8 C0.4547443 5.65309303 0.4547443 5.65309303 -8.625 7.4375 C-8.625 9.0875 -8.625 10.7375 -8.625 12.4375 C-7.56539063 12.78683594 -6.50578125 13.13617188 -5.4140625 13.49609375 C-4.02601541 13.95564988 -2.63799601 14.41528964 -1.25 14.875 C-0.55132812 15.10509766 0.14734375 15.33519531 0.8671875 15.57226562 C6.1484375 17.32421875 6.1484375 17.32421875 8.375 18.4375 C8.375 19.7575 8.375 21.0775 8.375 22.4375 C6.725 22.4375 5.075 22.4375 3.375 22.4375 C4.695 22.1075 6.015 21.7775 7.375 21.4375 C7.375 20.7775 7.375 20.1175 7.375 19.4375 C5.72951172 19.05658203 5.72951172 19.05658203 4.05078125 18.66796875 C2.59624786 18.32075755 1.14182658 17.97307642 -0.3125 17.625 C-1.03373047 17.45935547 -1.75496094 17.29371094 -2.49804688 17.12304688 C-6.64425022 16.1196278 -10.17814786 15.07833918 -13.625 12.4375 C-14.8125 9.0625 -14.8125 9.0625 -14.625 5.4375 C-10.01934913 0.40984636 -6.64998592 -0.29440042 0 0 Z " fill="#1A1A1A" transform="translate(396.625,222.5625)"/>
<path d="M0 0 C1.65 0 3.3 0 5 0 C5 13.2 5 26.4 5 40 C3.35 40 1.7 40 0 40 C0 26.8 0 13.6 0 0 Z " fill="#000000" transform="translate(213,223)"/>
<path d="M0 0 C3.36513506 0 5.40493414 0.46057037 7.921875 2.7421875 C13.49742449 9.03196027 14.35045659 13.31821134 14.28515625 21.6953125 C13.79295956 27.39940013 11.54050637 30.99734171 8.125 35.4375 C5.45630302 37.39977719 3.26330897 37.70333555 0 38 C1.23697917 36.60026042 2.47395833 35.20052083 3.7109375 33.80078125 C8.34461425 27.32767524 7.52290949 19.5781652 7 12 C5.97356096 6.98018864 3.99650359 3.30745124 0 0 Z " fill="#0E0E0D" transform="translate(227,224)"/>
<path d="M0 0 C1.90722656 0.28393555 1.90722656 0.28393555 4 1 C5.1383126 3.65107013 5.98307777 6.05592104 6.75 8.8125 C6.97042969 9.53759766 7.19085938 10.26269531 7.41796875 11.00976562 C8.44576531 14.49852847 9 17.338279 9 21 C5.04 21 1.08 21 -3 21 C-3.26721244 13.25083914 -3.03752971 7.15989147 0 0 Z " fill="#F3F2EE" transform="translate(325,227)"/>
<path d="M0 0 C2.64 0 5.28 0 8 0 C8.01981934 0.57331055 8.03963867 1.14662109 8.06005859 1.73730469 C7.52293804 20.45236563 7.52293804 20.45236563 14 37 C12.515 37.495 12.515 37.495 11 38 C8.40495433 31.39298188 6.3487081 24.69098348 4.375 17.875 C4.06304687 16.81667969 3.75109375 15.75835937 3.4296875 14.66796875 C3.130625 13.64058594 2.8315625 12.61320313 2.5234375 11.5546875 C2.25450684 10.63155762 1.98557617 9.70842773 1.70849609 8.75732422 C0.96242814 5.85377789 0.45201404 2.962355 0 0 Z " fill="#181818" transform="translate(91,223)"/>
<path d="M0 0 C2.64 0 5.28 0 8 0 C8.02505615 0.6391333 8.0501123 1.2782666 8.07592773 1.93676758 C8.19357147 4.89546745 8.31551778 7.85397594 8.4375 10.8125 C8.47681641 11.81732422 8.51613281 12.82214844 8.55664062 13.85742188 C8.83831457 20.59592939 9.32489406 27.28952975 10 34 C7.89447972 30.84171958 7.09220737 28.32474089 6.0546875 24.6875 C5.70019531 23.44742188 5.34570312 22.20734375 4.98046875 20.9296875 C4.79919434 20.28483398 4.61791992 19.63998047 4.43115234 18.97558594 C3.87643716 17.00510512 3.31190694 15.03763168 2.74609375 13.0703125 C0 3.39360119 0 3.39360119 0 0 Z " fill="#1A1A1A" transform="translate(260,223)"/>
<path d="M0 0 C2.64 0 5.28 0 8 0 C8.04898437 1.26972656 8.09796875 2.53945312 8.1484375 3.84765625 C8.59126082 14.3404213 9.38002083 24.61955094 11 35 C8.09975424 32.09975424 7.63203972 28.55327128 6.625 24.6875 C6.18775926 23.05557045 5.74894358 21.42406211 5.30859375 19.79296875 C5.09058105 18.9839209 4.87256836 18.17487305 4.64794922 17.34130859 C3.44487623 12.99410816 2.07168853 8.70267714 0.69921875 4.40625 C0 2 0 2 0 0 Z " fill="#121212" transform="translate(347,223)"/>
<path d="M0 0 C6.96327638 -0.33693273 12.43345544 0.6969113 19 3 C19.33 2.01 19.66 1.02 20 0 C21 1 21 1 21.1875 3.4375 C21 6 21 6 19 8 C11.50198163 8.84883227 5.04112974 6.40428821 -2 4 C-1.34 2.68 -0.68 1.36 0 0 Z " fill="#0C0C0C" transform="translate(386,242)"/>
<path d="M0 0 C2.75105422 -0.10812003 5.49785087 -0.18734945 8.25 -0.25 C9.02730469 -0.28351563 9.80460938 -0.31703125 10.60546875 -0.3515625 C16.38261426 -0.45031712 16.38261426 -0.45031712 19.51171875 1.83203125 C21.57127342 4.83216995 21.65532072 6.43214272 21 10 C17.64587223 14.26888989 13.672892 16.44313456 9 19 C8.34 19.66 7.68 20.32 7 21 C5.67607028 22.01241685 4.34400833 23.01439389 3 24 C3.34603458 21.1513939 3.73735934 20.20758714 6.03125 18.39453125 C6.8459375 17.87246094 7.660625 17.35039062 8.5 16.8125 C11.94363746 14.29589968 11.94363746 14.29589968 13.88671875 10.6171875 C14.17432647 8.29391476 14.35363183 6.31510974 14 4 C11.31907309 1.31907309 9.60832637 1.61329743 5.875 1.375 C4.23144531 1.26285156 4.23144531 1.26285156 2.5546875 1.1484375 C1.71164063 1.09945312 0.86859375 1.05046875 0 1 C0 0.67 0 0.34 0 0 Z " fill="#1F1F1F" transform="translate(187,223)"/>
<path d="M0 0 C1.671549 0.30791692 3.33805547 0.64386903 5 1 C7.14255793 0.61067144 7.14255793 0.61067144 9 0 C11.42797311 0 13.62907005 0.50085685 16 1 C16.38218767 2.65614657 16.71395102 4.32457024 17 6 C16 7 16 7 12.4375 7.0625 C11.303125 7.041875 10.16875 7.02125 9 7 C8.67 6.01 8.34 5.02 8 4 C8.33 3.34 8.66 2.68 9 2 C8.34 2 7.68 2 7 2 C7 3.65 7 5.3 7 7 C4.36 7 1.72 7 -1 7 C-1.625 4.625 -1.625 4.625 -2 2 C-1.34 1.34 -0.68 0.68 0 0 Z " fill="#8B8A88" transform="translate(237,275)"/>
<path d="M0 0 C0.33 0 0.66 0 1 0 C1 6.27 1 12.54 1 19 C-1.64 19 -4.28 19 -7 19 C-3.45283019 3.45283019 -3.45283019 3.45283019 0 0 Z " fill="#0A0A0A" transform="translate(320,244)"/>
<path d="M0 0 C0.66 0.33 1.32 0.66 2 1 C1.690625 1.9075 1.38125 2.815 1.0625 3.75 C-0.48113542 9.05966795 -0.62962214 14.50606171 -1 20 C5.435 19.505 5.435 19.505 12 19 C12 19.66 12 20.32 12 21 C7.71 21 3.42 21 -1 21 C-1 25.62 -1 30.24 -1 35 C-1.33 35 -1.66 35 -2 35 C-2.33 29.06 -2.66 23.12 -3 17 C-3.66 17.33 -4.32 17.66 -5 18 C-1.92482916 5.33029613 -1.92482916 5.33029613 0 0 Z " fill="#939390" transform="translate(323,228)"/>
<path d="M0 0 C0.66 0.33 1.32 0.66 2 1 C1.6034029 3.2744243 1.18199381 5.54453252 0.75 7.8125 C0.51796875 9.07707031 0.2859375 10.34164062 0.046875 11.64453125 C-1.06498156 15.20828046 -1.80110043 16.22209921 -5 18 C-1.92482916 5.33029613 -1.92482916 5.33029613 0 0 Z " fill="#525250" transform="translate(323,228)"/>
<path d="M0 0 C2.475 0.495 2.475 0.495 5 1 C5.33 2.65 5.66 4.3 6 6 C5.01 6.495 5.01 6.495 4 7 C3.01 6.67 2.02 6.34 1 6 C0.67 4.02 0.34 2.04 0 0 Z " fill="#C2C1BE" transform="translate(248,275)"/>
<path d="M0 0 C1.65 0 3.3 0 5 0 C5.33 1.65 5.66 3.3 6 5 C4.35 5 2.7 5 1 5 C0.67 3.35 0.34 1.7 0 0 Z " fill="#C2C1BE" transform="translate(235,277)"/>
</svg>
